<?xml version="1.0" standalone="no"?>
<svg xmlns="http://www.w3.org/2000/svg" viewBox="0 0 122.376 29" width="122.376" height="29"><g fill="#529d13" color="#529d13" transform="translate(0, 0) scale(0.29)"><svg width="100.0" height="100.0" x="0.0" y="0.0" viewBox="0 0 100 100"><g><path d="M78.5,78.1c0-0.7,0.1-1.8-0.6-2.5c-0.4-0.4-1.2-0.8-2.4-0.4c-0.4,0.1-0.6,0.5-0.6,0.8c0,0.7-0.4,2.2-0.9,2.6   c-1.4,0.9-2.5,2.5-2.5,3.7c0,0.2,0,0.4-0.1,0.7c-0.1,0.6-0.1,1.3,0.1,2c0.4,1.1,1.3,1.9,2.4,1.9c0,0,0.3,0,0.3,0   c1.4-0.2,2.4-2.3,2.6-3c0.2-0.8,0.7-1.9,0.9-2.1c0.9-0.8,1-2.6,0.9-3.3C78.5,78.4,78.5,78.2,78.5,78.1z M76.7,81.1   c-0.4,0.4-0.9,1.8-1,2.4c-0.1,0.6-0.9,2-1.5,2.1c-0.1,0-0.1,0-0.1,0c0,0-0.1,0-0.1,0c-0.6,0-1-0.4-1.2-1.1c-0.2-0.7,0-1.5,0-2.2   c0-0.7,0.7-1.9,1.8-2.6c1-0.7,1.2-3,1.2-3c2-0.7,1.5,1.6,1.5,2.2C77.3,79.4,77.1,80.6,76.7,81.1z"></path><g><path d="M77.5,39.3c0,0.4,0.1,0.7,0.4,1c0.4,0.4,1,0.6,1.8,0.6c0.2,0,0.4,0,0.5,0c0,0,2.3-0.4,2.5-1.7c0,0,0.2-3.1-1-3.6    c0,0-0.3-0.2-0.2-0.6c0,0,0.5-2.9-0.5-3.6c-0.2-0.1-0.9-0.5-1.5-0.5c-0.5,0-0.9,0.3-1,0.5c-0.3,0.5-0.8,1.1-0.9,1.2    c-1.1,0.6-0.9,2.6-0.7,3.4C77.2,36.8,77.5,38.8,77.5,39.3z M80.7,38.7c-0.2,0.1-0.6,0.2-0.8,0.3c-0.1,0-0.4,0-0.6,0    c-0.1-1-0.4-2.8-0.6-3.5c-0.1-0.5-0.1-1.1,0-1.3c0.3-0.2,0.6-0.6,1-1.1c0,0.4,0,1.1-0.1,1.6"></path><path d="M92.7,52.6c-1.5-18.1-14.8-32.9-32.2-36.7c-1-0.2-2-0.4-3.1-0.5c-0.6-0.1-1.3-0.2-1.9-0.2c-0.3,0-0.7-0.1-1-0.1    c-0.9-0.1-1.8-0.1-2.7-0.1c-0.3,0-0.6,0-0.9,0c-0.7,0-1.4,0-2.1,0.1c-0.8,0.1-1.7,0.1-2.5,0.3c-0.4,0.1-0.9,0.1-1.3,0.2    c-0.3,0.1-0.7,0.1-1,0.2c0,0,0,0,0,0c0,0,0,0,0,0c-0.4,0.1-0.8,0.2-1.2,0.2c-0.4,0.1-0.8,0.2-1.1,0.3c-1.5,0.4-2.9,0.8-4.3,1.3    c-0.2,0.1-0.4,0.2-0.7,0.3c-0.1,0-0.2,0.1-0.2,0.1c-0.2,0.1-0.4,0.2-0.7,0.3c-0.1,0-0.2,0.1-0.3,0.1c-0.7,0.3-1.4,0.6-2.1,1    c-0.4,0.2-0.7,0.4-1.1,0.6c-12.9,6.9-21.7,20.6-21.7,36.2c0,22.7,18.4,41.1,41.1,41.1c21.2,0,38.7-16.1,40.9-36.8    c0.1-1.2,0.2-2.5,0.2-3.8c0-0.2,0-0.4,0-0.5C92.8,54.9,92.8,53.7,92.7,52.6z M60.5,18C76,21.5,87.9,34.2,90.4,50.1    c-0.2-0.2-0.4-0.3-0.5-0.5c-0.5-0.5-1-0.8-1.2-1.2c-1.2-1.4-3.9-1.3-5.5-1.2c-0.3,0-0.5,0-0.6,0c-0.5-0.1-1.9-1.4-3-2.7    c-0.3-0.3-0.7-0.4-1-0.3l-0.7,0.2c-0.3,0.1-0.5,0.3-0.6,0.6c-0.1,0.3-0.1,0.6,0.1,0.8l2.4,4.1c0.2,0.3,0.5,0.5,0.9,0.5l2.8-0.1    c0.9,0.5,2.3,1.5,2.1,2.1c-0.6,0.6-5.6,3-10.3,5.1c-0.6-1.2-1.7-3.5-2.7-6.4c-0.6-1.6-2-3.6-3.1-5.1c-0.2-0.3-0.6-0.4-0.9-0.4    c-0.4,0.1-0.7,0.3-0.7,0.7c-0.3,1.3-0.2,3,0.4,4.3c0.3,0.6,0.7,1.5,1.2,2.5c0.8,1.7,1.8,3.8,2,4.4c0.2,0.5,0,2.3-0.3,3.7    c-0.1,0.3,0,0.6,0.2,0.8c0.2,0.2,0.5,0.3,0.8,0.3c5.2-0.5,5.6-1,5.8-1.3c0.1-0.1,0.3-0.2,0.6-0.4c-0.1,0.4-0.3,0.9-0.5,1.5    l-0.6,1.6c-0.7,2-2.8,4.3-6.3,6.7l-0.2,0.1c-1,0.7-0.8,2.4-0.6,4.5c0.1,0.8,0.2,1.6,0.2,2.1c-0.1,0.5-1.2,2.2-6.2,7l-0.7,0.7    c-0.8,0.8-1.4,1.9-1.9,2.7c-0.3,0.5-0.5,1-0.7,1.1c-0.4,0.4-3.1,1.2-4.4,1.2c-0.1,0-0.2,0-0.2,0c-0.3-0.1-0.7-0.2-0.9-0.2    c-0.1-0.6-0.6-1.4-1.9-3.6c-0.9-1.6-2.5-4.2-2.5-4.9c-0.1-1,0.4-1.9,0.9-2.9c0.2-0.4,0.4-0.8,0.6-1.3c0.9-2.1-4.3-11.3-5-11.9    c-0.8-0.7-2.7-0.8-4.2-0.8c-1,0-2.6,0.6-3.4,1c-0.6-0.2-2.5-1-8.9-4.5l-0.2-0.1c-0.9-1-0.9-10-0.4-12.3c0.4-1.5,6.3-5.8,7.5-6.4    c0.8-0.4,9.6-2.6,10.5-2.7c0.1,0.1,0.2,0.4,0.2,0.7c0.1,0.9,0.5,3.9,2.4,4.4c0.3,0.1,0.6,0.1,0.9,0.1c0.9,0,2.8-0.4,3.6-0.9    c0.6,0,1.9,0.2,3.1,0.4c1.8,0.2,3.6,0.5,4.5,0.5c0.3,0,0.5,0,0.7-0.1c0.3-0.1,1.3-0.2,1.9-0.3c0.8-0.1,1.6-0.2,2.1-0.3l0.8-0.2    c0.4-0.1,0.7-0.5,0.7-1l-0.3-3c0-0.3-0.1-0.5-0.3-0.6c-0.2-0.2-0.4-0.2-0.7-0.2c0,0-0.4,0-1,0c-0.6,0-1.1,0-1.5-0.1    c-0.8-0.2-1.4-0.8-1.8-2c0.4-0.1,1.4-0.3,3.9-0.3l2.5,0c0.4,0,0.8,0,1,0c1-0.1,1.5-0.6,1.8-1c0.5-0.9,0.1-2.1-0.2-2.9    c-0.8-1.8-6.1-3.4-8.2-3.4c0,0-0.2,0-0.2,0c-2.3,0.1-2.8,3-2.9,4.4l-1.1,0.2c-0.4,0.1-0.8,0.4-0.8,0.8c0,0-0.1,0.9-0.6,1.8    c-0.1,0.1-0.3,0.5-1,0.5c0,0-0.1,0-0.1,0c-0.2-0.1-0.7-0.6-0.3-1.9c0.6-1.9-2.6-3.7-5.4-5c-0.4-0.2-0.9-0.1-1.1,0.3    c-0.3,0.3-0.3,0.8,0,1.2l2.5,3.4l0.2,0.6l-0.1,0c-0.3,0-0.6,0.1-0.7,0.3c-0.1,0.1-0.3,0.3-0.4,0.4c0-0.5,0-0.9-0.2-1.4    c-1-3.6-4.5-4.1-4.7-4.1c-0.3,0-0.5,0-0.7,0.2c-0.5,0.4-1.1,0.7-1.3,0.8c-0.1,0-0.1,0-0.2,0c-0.6-0.1-1.5-0.1-2.1,0.2    c-1,0.5-1.5,1.5-2.1,2.4c-0.2,0.3-0.4,0.6-0.5,0.8c-0.2,0.3-0.3,0.6-0.5,1.1c-0.2,0.5-1.1,0.8-2.6,0.8c-0.9,0-1.8-0.1-2.5-0.2    c0-0.8,0-2.3,0-3.5c0.1,0,0.3,0,0.6,0c1,0,2.2,0.1,2.9,0.1c0.4,0,0.6,0,0.7,0c0.5,0,0.9-0.2,1.1-0.6c0.6-0.9,0.1-2.5-0.4-3.7    c-0.1-0.3-0.4-0.5-0.8-0.6c-0.2,0-0.3,0-0.5-0.1c0.7-0.1,1.5-0.1,1.7-0.2c0.6-0.1,1-0.5,1.4-0.9c0.1-0.1,0.3-0.3,0.3-0.3    c0.7-0.3,4.4-2,4.8-2.2c0.2-0.1,0.3-0.2,0.4-0.4c0.1-0.2,1-1.7,0.6-3.2c-0.1-0.3,0-0.6,0.2-0.8l1.3,1.9c0.2,0.3,0.5,0.4,0.8,0.4    l5.6-0.1c0.3,0,0.5-0.1,0.7-0.3c0.1-0.1,0.8-0.9,1.2-2.3c0.1-0.2,0.9-0.6,1.3-0.7C59.5,18.9,60.2,18.6,60.5,18z M62.9,34.9    c0.1-0.2,0.2-0.4,0.2-0.6c0-1.1,0.3-3.3,1.3-3.3c2.1,0,6.1,1.6,6.5,2.2c0.4,0.9,0.3,1.2,0.3,1.2c0,0-0.1,0.1-0.3,0.1    c-0.2,0-0.5,0-0.8,0l-2.5,0C65.2,34.4,63.8,34.5,62.9,34.9z M55.4,34.3c-0.1,0.2-0.1,0.4-0.1,0.6l-0.4-1c0,0,0-0.1-0.1-0.1    C55.1,34,55.4,34.2,55.4,34.3z M54,17c-0.1,0.4-0.2,0.8-0.3,0.9c-0.1,0.2-0.2,0.2-0.3,0.2c-0.4,0.3-1.2-0.4-1.5-1.2    C52.6,17,53.3,17,54,17z M41.6,18.3c-0.3,0.2-0.6,0.5-0.8,0.8c-0.2,0.3-0.5,0.6-0.7,0.7c0,0-0.2,0.1-0.5,0.1    c-0.7,0-1.4-0.2-1.4-0.2c-0.1-0.1-0.2-0.1-0.3-0.2C38.6,19.1,40,18.7,41.6,18.3z M51.7,95.2c-21.6,0-39.1-17.6-39.1-39.1    c0-15.9,9.5-29.6,23.1-35.7c0.1,0.1,0.1,0.1,0.2,0.2c0,0,0.7,0.4,0.8,0.5c0.5,0.6,2.1,0.8,2.8,0.8c0.6,0,1.1-0.1,1.4-0.3    c0.6-0.3,1-0.8,1.3-1.2c0.1-0.2,0.3-0.4,0.2-0.4c0.4,0,0.7-0.2,0.9-0.5c0.3-0.4,0.3-1,0.3-1.6c0.2,0,0.5-0.1,0.7-0.1    c0.2,0.3,0.4,0.5,0.6,0.7c0.3,0.3,0.8,0.3,1.1,0.1c0.8-0.5,1.8-1,2.7-1.4c0.4,0,0.7-0.1,1.1-0.1c0.6,1.4,2.1,3,3.6,3    c0.5,0,1.2-0.2,1.8-0.9c0.4-0.5,0.6-1.3,0.7-2c0.6,0.1,1.3,0.1,2.1,0.3c0,0,0,0,0,0c-0.9,0.4-2.1,0.9-2.4,2    c-0.1,0.5-0.4,1-0.5,1.2l-4.6,0.1l-1.5-2.2c-0.3-0.4-0.7-0.5-1.2-0.3c-0.9,0.4-2.5,1.6-1.9,3.5c0.1,0.4-0.1,1-0.3,1.4    c-1.6,0.8-4,1.8-4.4,2c-0.5,0.2-0.8,0.6-1,0.8c-0.1,0.1-0.3,0.3-0.2,0.3c-0.3,0-2.3,0.2-2.8,0.3c-0.6,0.1-1.1,0.2-1.4,0.7    c-0.3,0.5-0.1,1,0,1.2c0,1.1,1.2,1.6,2.5,1.7c0.1,0.4,0.3,0.8,0.3,1.1c0,0,0,0,0,0c-0.8-0.1-2-0.1-3-0.1c-1,0-2.4,0-2.5,1.2    c-0.1,2.1,0,5,0,5.1c0,0.4,0.3,0.8,0.7,0.9c0.1,0,1.8,0.4,3.6,0.4c2.4,0,3.9-0.7,4.4-2.1c0,0,0.1-0.2,0.1-0.2    c0-0.1,0.1-0.3,0.1-0.4c0.2-0.3,0.4-0.7,0.7-1c0.4-0.7,0.8-1.4,1.3-1.6c0.1,0,0.6,0,1,0c0.2,0,0.4,0.1,0.6,0    c0.7-0.1,1.5-0.5,2-0.9c0.7,0.2,2.2,0.8,2.7,2.6c0.1,0.2,0.1,0.6,0.1,1c0,0.9,0.1,1.8,0.9,2.3c0.1,0.1,0.4,0.1,0.5,0.1    c0.2,0,0.7,0,2-1.4l1.1,0c0.2,0,0.5-0.1,0.6-0.2c0.4,0.9,1.1,1.4,1.7,1.6c0,0,0.2,0,0.5,0c1.2,0,2.2-0.6,2.7-1.5    c0.4-0.7,0.6-1.3,0.7-1.7l1.2-0.2c-0.1,0.1-0.2,0.2-0.3,0.3c-0.3,0.4-0.4,0.8-0.2,1.3c0.8,2.5,2.2,3.4,3.3,3.6    c0.6,0.1,1.4,0.2,2.2,0.2l0.1,1.3c-0.3,0.1-1.1,0.2-1.8,0.3c-1.2,0.1-2,0.2-2.4,0.4c-0.7,0-2.6-0.2-4.2-0.5    c-1.6-0.2-2.9-0.4-3.5-0.4c-0.1,0-0.5,0-0.8,0.3c-0.2,0.2-1.6,0.6-2.7,0.6c-0.2,0-0.4,0-0.5,0c-0.3-0.1-0.9-1.4-1-2.8    c-0.1-1.1-0.8-2.3-2.1-2.3c0,0,0,0,0,0C47.3,37.5,38,39.8,37,40.3c-0.5,0.2-7.8,4.9-8.5,7.7c-0.3,1.5-1.2,13,1.2,14.4l0.3,0.1    c8,4.4,9.3,4.8,9.9,4.8c0.2,0,0.5-0.1,0.6-0.2c0.4-0.3,1.9-0.9,2.6-0.9c1.5,0,2.7,0.2,2.9,0.3c0.8,1,4.7,8.5,4.5,9.8    c-0.2,0.4-0.3,0.7-0.5,1.1c-0.6,1.1-1.2,2.4-1.1,3.9c0.1,1.1,1.2,3,2.8,5.7c0.6,1.1,1.5,2.6,1.6,2.8c-0.2,1.4,1.1,1.6,1.5,1.7    c0.2,0,0.4,0.1,0.7,0.2c0.2,0.1,0.5,0.1,0.8,0.1c1.5,0,5-0.9,5.8-1.8c0.3-0.3,0.6-0.9,0.9-1.5c0.4-0.8,1-1.7,1.6-2.3l0.7-0.7    c4.9-4.7,6.7-6.9,6.8-8.2c0-0.7-0.1-1.5-0.2-2.4c-0.1-0.9-0.3-2.5-0.2-2.7l0.2-0.1c3.8-2.6,6.1-5.2,7-7.6l0.6-1.6    c1.1-3.2,1.4-3.8,0.5-4.3c-0.2-0.1-0.5-0.2-0.7-0.2c-0.7,0-2.4,0.7-3.1,1.5c-0.4,0.2-1.8,0.4-3.3,0.6c0.1-0.7,0.2-1.6,0.2-2.3    c0.3,0.7,0.5,1,0.6,1.1c0.2,0.4,0.8,0.6,1.2,0.4c11.4-5,11.9-5.9,12-6.3c0.8-1.7-0.7-3.3-2.1-4.3c1.7,0.1,2.1,0.4,2.3,0.6    c0.3,0.4,0.8,0.8,1.4,1.4c0.7,0.6,1.5,1.3,2.1,2.1c0.1,1,0.1,2,0.1,3C90.8,77.6,73.3,95.2,51.7,95.2z"></path></g></g></svg></g><line x1="41" y1="1" x2="41" y2="28" stroke="#000000" stroke-linecap="round"></line><path fill="#000000" fill-rule="nonzero" d="M6.36 18.07L6.36 18.07L3.65 18.05Q1.85 18.05 0.92 16.99Q0 15.94 0 14.47L0 14.47L0 0L3.12 0L3.12 6.05L6.84 4.32Q8.98 4.32 9.98 5.47L9.98 5.47Q10.87 6.50 11.09 8.81L11.09 8.81Q11.16 9.77 11.16 11.18L11.16 11.18Q11.16 18.07 6.36 18.07ZM3.91 15.38L3.91 15.38L5.45 15.38Q8.04 15.38 8.04 11.18L8.04 11.18Q8.04 9.05 7.64 8.21Q7.25 7.37 5.93 7.37L5.93 7.37L3.12 8.88L3.12 14.28Q3.12 15.24 3.91 15.38ZM16.94 0L16.94 18.05L13.82 18.07L13.82 0L16.94 0ZM30.58 11.93L30.58 11.93L22.58 11.93Q22.58 13.80 23.17 14.66Q23.76 15.53 25.54 15.53L25.54 15.53Q26.69 15.53 27.24 14.80Q27.79 14.06 27.79 13.39L27.79 13.39L30.60 13.39Q30.60 15.96 29.22 17.16Q27.84 18.36 25.57 18.36Q23.30 18.36 22.06 17.71L22.06 17.71Q19.49 16.39 19.49 10.70L19.49 10.70Q19.49 7.32 20.95 5.75Q22.42 4.18 25.42 4.18L25.42 4.18Q30.62 4.18 30.62 9.96L30.62 9.96Q30.62 10.58 30.58 11.93ZM22.66 9.79L22.66 9.79L27.79 9.79Q27.79 8.21 27.19 7.49Q26.59 6.77 25.36 6.77Q24.12 6.77 23.39 7.50Q22.66 8.23 22.66 9.79ZM39.31 15.41L39.31 18.05L37.37 18.05Q35.59 18.05 34.67 16.99Q33.74 15.94 33.74 14.47L33.74 14.47L33.74 7.27L32.42 7.27L32.42 4.90L33.74 4.90L33.74 2.21L36.86 2.21L36.86 4.90L39.07 4.90L39.07 7.27L36.86 7.27L36.86 14.28Q36.86 15.41 37.94 15.41L37.94 15.41L39.31 15.41ZM47.76 15.41L47.76 18.05L45.82 18.05Q44.04 18.05 43.12 16.99Q42.19 15.94 42.19 14.47L42.19 14.47L42.19 7.27L40.87 7.27L40.87 4.90L42.19 4.90L42.19 2.21L45.31 2.21L45.31 4.90L47.52 4.90L47.52 7.27L45.31 7.27L45.31 14.28Q45.31 15.41 46.39 15.41L46.39 15.41L47.76 15.41ZM60.60 4.34L60.60 18.05L58.27 18.05L57.55 16.42L53.71 18.19Q52.10 18.19 50.92 17.00Q49.73 15.82 49.73 13.54L49.73 13.54L49.73 4.34L52.85 4.34L52.85 12.86Q52.85 15.14 54.67 15.14L54.67 15.14L57.48 13.63L57.48 4.34L60.60 4.34ZM71.38 4.39L71.38 4.39L70.51 7.46Q70.15 7.32 69.70 7.32L69.70 7.32Q68.50 7.32 66.74 8.35L66.74 8.35L66.74 18.05L63.62 18.05L63.62 4.34L65.95 4.34L66.67 5.54L69.98 4.18Q70.22 4.15 70.63 4.15Q71.04 4.15 71.38 4.39Z" transform="translate(51, 5.476)"></path></svg>